<svg width="102" height="138" viewBox="0 0 102 138" fill="none" xmlns="http://www.w3.org/2000/svg">
<path d="M18.5157 98.4176L16.5986 96.474L16.9407 86.8241C16.9826 86.0767 16.9561 85.4698 16.8612 85.0034C16.7664 84.537 16.6342 84.1561 16.4646 83.8608C16.3074 83.5533 16.1314 83.3008 15.9366 83.1034C15.4254 82.5851 14.857 82.3667 14.2313 82.4482C13.6058 82.5052 12.9537 82.8684 12.275 83.5379C11.732 84.0734 11.3295 84.6774 11.0675 85.3497C10.8179 86.0098 10.7517 86.7203 10.869 87.481L7.29716 88.2287C7.06046 87.0013 7.17335 85.7335 7.63584 84.4252C8.09833 83.1169 8.90957 81.8907 10.0696 80.7465C11.0321 79.7971 12.0295 79.1298 13.0617 78.7447C14.0941 78.3351 15.0877 78.2193 16.0425 78.3975C17.0097 78.5635 17.8827 79.0414 18.6618 79.8311C19.0756 80.2507 19.4339 80.7251 19.7367 81.2542C20.0397 81.7588 20.2559 82.3976 20.3854 83.1707C20.5273 83.9316 20.5758 84.8941 20.531 86.0582L20.2371 94.0537L18.586 93.5276L25.8978 86.3157L28.3078 88.7591L18.5157 98.4176ZM26.5323 85.142L24.5422 83.1243L22.5442 68.8804L25.691 65.7765L27.8186 79.8926L25.9363 80.9093L36.1357 70.8491L38.5458 73.2925L26.5323 85.142ZM36.1948 80.9797L33.5109 78.2587L31.1934 75.724L28.8015 73.2991L31.6337 70.5056L39.1195 78.095L36.1948 80.9797ZM52.956 64.8854C51.8701 65.9566 50.7616 66.7334 49.6307 67.2159C48.4876 67.6861 47.3956 67.8502 46.3547 67.7082C45.3017 67.5539 44.3796 67.0757 43.5884 66.2735C42.7972 65.4714 42.3499 64.5736 42.2464 63.5801C42.1431 62.562 42.3587 61.5094 42.8932 60.4222C43.4156 59.3227 44.2259 58.2313 45.3242 57.148C46.4348 56.0525 47.5434 55.2512 48.65 54.744C49.7568 54.2123 50.8123 54.0112 51.8164 54.1407C52.8208 54.2456 53.7185 54.6991 54.5097 55.5013C55.3009 56.3034 55.7664 57.232 55.9062 58.287C56.0339 59.3297 55.8486 60.4255 55.3505 61.5742C54.8525 62.6984 54.0543 63.8021 52.956 64.8854ZM50.7833 62.6827C51.5361 61.9402 51.9641 61.1893 52.0674 60.4301C52.183 59.6587 51.9548 58.983 51.3827 58.403C50.8106 57.823 50.1442 57.5917 49.3835 57.7091C48.6229 57.8019 47.8662 58.2195 47.1135 58.962C46.373 59.6924 45.9512 60.4371 45.8479 61.1963C45.7325 61.9432 45.9608 62.6066 46.5329 63.1866C47.105 63.7666 47.7713 64.0102 48.5319 63.9174C49.2924 63.8246 50.0429 63.413 50.7833 62.6827ZM46.8213 58.6659C45.8218 59.6518 44.8117 60.3803 43.7911 60.8513C42.7829 61.3101 41.8134 61.4873 40.8826 61.3829C39.952 61.2539 39.1276 60.8254 38.4095 60.0973C37.6548 59.3322 37.2195 58.4712 37.1035 57.5144C36.9753 56.5452 37.1415 55.5413 37.6022 54.5026C38.0506 53.4516 38.7623 52.4453 39.7372 51.4837C40.7368 50.4978 41.7589 49.7939 42.8037 49.3721C43.8486 48.9258 44.8547 48.7734 45.822 48.9148C46.7895 49.0318 47.6505 49.4728 48.4052 50.2379C49.1234 50.966 49.5343 51.8023 49.6382 52.7468C49.7422 53.6668 49.5517 54.6338 49.0667 55.6477C48.5817 56.6617 47.8332 57.6678 46.8213 58.6659ZM45.0868 56.9074C45.7162 56.2866 46.0698 55.6578 46.1477 55.021C46.238 54.372 46.0397 53.8007 45.5528 53.3071C45.0416 52.7888 44.4547 52.5764 43.7922 52.6699C43.142 52.7512 42.5146 53.0901 41.9099 53.6865C41.3176 54.2708 40.9763 54.8874 40.886 55.5364C40.7958 56.1854 41.0063 56.769 41.5175 57.2873C42.0044 57.7809 42.5667 57.9932 43.2045 57.924C43.8424 57.8548 44.4698 57.516 45.0868 56.9074ZM65.6017 52.4123C64.417 53.5809 63.1431 54.3504 61.7801 54.721C60.4294 55.0794 59.0509 55.0148 57.6448 54.5271C56.2386 54.0395 54.8478 53.0984 53.4723 51.7039C51.9995 50.2107 51.0295 48.672 50.5624 47.0876C50.1076 45.4911 50.106 43.9345 50.5577 42.4178C51.0217 40.8888 51.9016 39.4854 53.1973 38.2073C53.8884 37.5257 54.6216 36.9485 55.3971 36.4758C56.1725 36.0031 56.9346 35.6897 57.6833 35.5355L58.7454 38.8337C58.1441 38.9399 57.5972 39.1506 57.1047 39.4659C56.6001 39.7689 56.1257 40.1395 55.6814 40.5777C54.5585 41.6853 54.0047 42.9011 54.0201 44.2249C54.0355 45.5487 54.7005 46.8771 56.0151 48.2098C56.2342 48.4319 56.4776 48.6788 56.7454 48.9502C57.0255 49.2096 57.3304 49.4445 57.6598 49.6552L56.06 49.6993C55.8198 48.9868 55.7265 48.2875 55.7803 47.6015C55.8218 46.9031 56.0165 46.2242 56.3642 45.5647C56.7121 44.8808 57.1946 44.2345 57.8116 43.6259C58.6507 42.7982 59.5678 42.2223 60.5628 41.8982C61.5579 41.5741 62.551 41.5196 63.5424 41.7348C64.546 41.9378 65.4495 42.4465 66.2529 43.261C67.1171 44.1372 67.6496 45.1214 67.8505 46.2136C68.0515 47.2813 67.9583 48.3593 67.5709 49.4475C67.1836 50.5112 66.5272 51.4994 65.6017 52.4123ZM63.2259 50.3369C63.6455 49.923 63.9426 49.4838 64.1174 49.0193C64.2924 48.5302 64.3263 48.0463 64.2193 47.5675C64.1123 47.0888 63.8701 46.6581 63.4928 46.2756C62.9085 45.6832 62.2424 45.4151 61.4943 45.4713C60.7464 45.5029 60.0393 45.8474 59.3729 46.5047C58.9287 46.9429 58.6251 47.4127 58.4624 47.9141C58.2874 48.4032 58.2473 48.8931 58.342 49.3841C58.4368 49.8505 58.6729 50.275 59.0502 50.6575C59.4154 51.0277 59.8366 51.2696 60.3138 51.3832C60.7789 51.4845 61.2632 51.4572 61.7668 51.3013C62.2582 51.1331 62.7446 50.8116 63.2259 50.3369ZM77.3878 40.7871C76.2031 41.9556 74.9292 42.7252 73.5662 43.0958C72.2155 43.4542 70.837 43.3896 69.4308 42.9019C68.0246 42.4142 66.6338 41.4732 65.2584 40.0787C63.7856 38.5855 62.8156 37.0467 62.3485 35.4624C61.8937 33.8659 61.8921 32.3093 62.3438 30.7925C62.8078 29.2636 63.6877 27.8601 64.9834 26.5821C65.6745 25.9004 66.4077 25.3233 67.1831 24.8506C67.9586 24.3779 68.7206 24.0644 69.4694 23.9102L70.5314 27.2085C69.9301 27.3147 69.3833 27.5254 68.8908 27.8407C68.3862 28.1437 67.9118 28.5142 67.4675 28.9524C66.3445 30.0601 65.7908 31.2758 65.8062 32.5997C65.8216 33.9235 66.4866 35.2518 67.8012 36.5846C68.0203 36.8067 68.2637 37.0535 68.5315 37.325C68.8116 37.5843 69.1164 37.8193 69.4459 38.0299L67.8461 38.0741C67.6059 37.3615 67.5126 36.6623 67.5663 35.9763C67.6079 35.2779 67.8026 34.599 68.1503 33.9395C68.4982 33.2555 68.9806 32.6092 69.5976 32.0006C70.4368 31.1729 71.3539 30.597 72.3489 30.2729C73.3439 29.9488 74.3371 29.8944 75.3284 30.1095C76.3321 30.3125 77.2356 30.8213 78.039 31.6357C78.9032 32.5119 79.4357 33.4961 79.6366 34.5884C79.8376 35.6561 79.7444 36.734 79.357 37.8222C78.9697 38.8859 78.3133 39.8742 77.3878 40.7871ZM75.0119 38.7116C75.4315 38.2978 75.7287 37.8586 75.9035 37.394C76.0784 36.905 76.1124 36.4211 76.0054 35.9423C75.8984 35.4636 75.6562 35.0329 75.2789 34.6503C74.6946 34.058 74.0284 33.7899 73.2804 33.8461C72.5325 33.8777 71.8254 34.2221 71.159 34.8794C70.7147 35.3176 70.4112 35.7874 70.2484 36.2888C70.0735 36.7779 70.0333 37.2679 70.128 37.7588C70.2229 38.2252 70.459 38.6497 70.8363 39.0323C71.2015 39.4025 71.6227 39.6444 72.0999 39.758C72.565 39.8592 73.0493 39.8319 73.5529 39.676C74.0443 39.5078 74.5307 39.1864 75.0119 38.7116ZM86.2645 37.2173L83.1043 31.5697L85.1547 32.834C84.6241 33.3574 84.0338 33.6352 83.384 33.6675C82.7465 33.6877 82.16 33.4263 81.6244 32.8833C81.0888 32.3403 80.8356 31.738 80.8646 31.0763C80.8937 30.4146 81.1612 29.8343 81.6672 29.3352C82.1855 28.824 82.7755 28.5707 83.4374 28.5752C84.087 28.5674 84.6736 28.8288 85.197 29.3595C85.3552 29.5199 85.5011 29.6925 85.6347 29.8773C85.756 30.0497 85.8893 30.2835 86.0343 30.5787C86.1795 30.8493 86.3424 31.2243 86.523 31.7035L88.097 35.4098L86.2645 37.2173ZM93.7236 24.6742C92.6623 25.721 91.4564 26.3991 90.1061 26.7085C88.7435 27.0056 87.3286 26.8917 85.8614 26.3668C84.3942 25.842 82.9607 24.87 81.5609 23.4508C80.1612 22.0317 79.2089 20.5849 78.7043 19.1107C78.1996 17.6364 78.1113 16.2262 78.4392 14.8802C78.7549 13.5219 79.4435 12.3193 80.5047 11.2725C81.5783 10.2136 82.7903 9.54164 84.1405 9.25676C85.4908 8.94736 86.8996 9.05509 88.3668 9.57995C89.8341 10.1048 91.2675 11.0768 92.6673 12.496C94.0671 13.9151 95.0193 15.3618 95.524 16.8361C96.0287 18.3104 96.1231 19.7267 95.8074 21.0851C95.4918 22.4189 94.7972 23.6153 93.7236 24.6742ZM91.2222 22.1383C91.7282 21.6392 92.0263 21.0652 92.1165 20.4162C92.2191 19.7551 92.071 19.0125 91.6722 18.1886C91.2857 17.3524 90.6117 16.4469 89.6501 15.472C88.6885 14.4971 87.7923 13.8107 86.9616 13.4128C86.1432 13.0027 85.4028 12.8444 84.7403 12.9379C84.0901 13.0192 83.512 13.3094 83.0061 13.8085C82.5125 14.2954 82.2144 14.8694 82.1118 15.5306C82.0215 16.1796 82.1696 16.9221 82.5561 17.7582C82.9549 18.5822 83.6351 19.4816 84.5967 20.4565C85.5583 21.4314 86.4483 22.1239 87.2667 22.534C88.0974 22.9319 88.8378 23.0902 89.488 23.0089C90.1505 22.9154 90.7286 22.6252 91.2222 22.1383Z" fill="black"/>
<rect width="70" height="4" transform="translate(0 108.348)" fill="#2F80ED"/>
<g opacity="0.1">
<rect width="70" height="25" transform="translate(0 112.348)" fill="#2F80ED"/>
</g>
</svg>
