<svg width="100" height="134" viewBox="0 0 100 134" fill="none" xmlns="http://www.w3.org/2000/svg">
<path d="M18.9893 95.4437L17.0722 93.5L17.4142 83.8501C17.4561 83.1028 17.4297 82.4959 17.3348 82.0295C17.24 81.5631 17.1078 81.1822 16.9382 80.8869C16.781 80.5794 16.605 80.3269 16.4102 80.1294C15.899 79.6111 15.3306 79.3927 14.7049 79.4742C14.0794 79.5312 13.4273 79.8945 12.7486 80.5639C12.2056 81.0995 11.8031 81.7034 11.5411 82.3758C11.2914 83.0359 11.2253 83.7463 11.3426 84.5071L7.77074 85.2547C7.53404 84.0274 7.64693 82.7596 8.10942 81.4513C8.57191 80.143 9.38315 78.9168 10.5432 77.7726C11.5057 76.8232 12.5031 76.1559 13.5353 75.7708C14.5677 75.3611 15.5613 75.2454 16.5161 75.4236C17.4832 75.5895 18.3563 76.0674 19.1353 76.8572C19.5492 77.2768 19.9075 77.7511 20.2103 78.2803C20.5132 78.7849 20.7295 79.4237 20.859 80.1968C21.0008 80.9577 21.0494 81.9202 21.0046 83.0842L20.7107 91.0798L19.0596 90.5537L26.3713 83.3417L28.7814 85.7851L18.9893 95.4437ZM34.4397 80.6423C33.5389 81.5308 32.5286 82.2961 31.4088 82.938C30.2768 83.5676 29.1832 83.9645 28.128 84.1289L27.0302 80.6833C27.8768 80.5543 28.7306 80.2721 29.5916 79.8368C30.4525 79.4014 31.2162 78.8551 31.8826 78.1978C32.6354 77.4554 33.0816 76.723 33.2214 76.0008C33.3612 75.2786 33.1755 74.6584 32.6643 74.1401C32.1774 73.6465 31.6027 73.4464 30.9402 73.5399C30.2777 73.6334 29.5207 74.1001 28.6692 74.94L27.2994 76.2911L25.3458 74.3104L24.9203 66.6593L26.3125 67.4042L19.5191 74.1049L17.1455 71.6986L26.2157 62.7521L28.1328 64.6957L28.5768 72.3286L26.2008 72.9558L27.0708 72.0977C28.6627 70.5275 30.2189 69.6986 31.7393 69.611C33.2598 69.5234 34.5738 70.041 35.6815 71.164C36.3996 71.8921 36.8839 72.7657 37.1343 73.7847C37.3725 74.7914 37.2915 75.8817 36.8912 77.0556C36.4909 78.2295 35.6738 79.4251 34.4397 80.6423ZM48.2887 66.544L41.8601 49.5855L43.9156 50.1144L36.9371 56.9977L36.8822 54.2763L40.3513 57.7933L37.6857 60.4224L33.1943 55.8688L43.5787 45.6261L45.4958 47.5697L51.5466 63.3306L48.2887 66.544ZM59.7675 55.2219L53.3388 38.2633L55.3944 38.7922L48.4158 45.6755L48.361 42.9541L51.83 46.4712L49.1645 49.1003L44.673 44.5467L55.0575 34.3039L56.9746 36.2476L63.0254 52.0085L59.7675 55.2219ZM73.4904 42.1245C72.5895 43.013 71.5792 43.7783 70.4594 44.4202C69.3398 45.0376 68.2462 45.4346 67.1787 45.6111L66.0994 42.1473C66.946 42.0182 67.7936 41.7422 68.6422 41.319C69.5032 40.8837 70.2669 40.3374 70.9332 39.6801C71.686 38.9376 72.1323 38.2052 72.2721 37.483C72.4119 36.7609 72.2201 36.1344 71.6967 35.6038C71.368 35.2706 70.9895 35.0596 70.5611 34.9709C70.1327 34.8822 69.6295 34.989 69.0513 35.2915C68.4855 35.5817 67.8077 36.1164 67.0179 36.8954L63.7045 40.1636L57.1772 32.2131L65.0813 24.4169L67.4548 26.8233L60.6244 33.5605L60.8282 30.6571L65.496 36.315L62.59 36.4789L65.3295 33.7767C66.6129 32.5108 67.8199 31.6734 68.9503 31.2644C70.0809 30.8309 71.1234 30.74 72.0777 30.9917C73.032 31.2434 73.8864 31.7518 74.6411 32.5169C75.3958 33.282 75.9044 34.1803 76.167 35.2117C76.4173 36.2307 76.3423 37.3394 75.9419 38.5378C75.5416 39.7117 74.7244 40.9073 73.4904 42.1245ZM82.7973 38.1303L79.6371 32.4827L81.6876 33.747C81.1569 34.2704 80.5667 34.5483 79.9168 34.5806C79.2794 34.6007 78.6928 34.3393 78.1573 33.7963C77.6217 33.2533 77.3684 32.651 77.3975 31.9893C77.4265 31.3277 77.6941 30.7473 78.2 30.2483C78.7183 29.737 79.3084 29.4837 79.9702 29.4882C80.6199 29.4804 81.2064 29.7419 81.7298 30.2725C81.888 30.4329 82.0339 30.6055 82.1675 30.7903C82.2889 30.9627 82.4221 31.1965 82.5671 31.4917C82.7124 31.7623 82.8753 32.1373 83.0558 32.6165L84.6299 36.3228L82.7973 38.1303ZM81.8871 28.0358L79.897 26.0181L77.8989 11.7742L81.0457 8.67035L83.1733 22.7864L81.2911 23.8031L91.4904 13.7429L93.9005 16.1863L81.8871 28.0358ZM91.5495 23.8735L88.8656 21.1525L86.5481 18.6178L84.1563 16.1929L86.9884 13.3994L94.4742 20.9888L91.5495 23.8735Z" fill="black"/>
<rect width="70" height="4" transform="translate(0.5 105.348)" fill="#2F80ED"/>
<g opacity="0.1">
<rect width="70" height="24" transform="translate(0.5 109.348)" fill="#2F80ED"/>
</g>
</svg>
