<svg width="105" height="142" viewBox="0 0 105 142" fill="none" xmlns="http://www.w3.org/2000/svg">
<path d="M18.508 100.425L16.5909 98.4815L16.933 88.8316C16.9749 88.0843 16.9484 87.4774 16.8536 87.011C16.7587 86.5445 16.6265 86.1637 16.457 85.8683C16.2997 85.5608 16.1238 85.3084 15.929 85.1109C15.4178 84.5926 14.8493 84.3742 14.2237 84.4557C13.5982 84.5127 12.9461 84.8759 12.2674 85.5454C11.7244 86.081 11.3219 86.6849 11.0599 87.3572C10.8102 88.0174 10.744 88.7278 10.8614 89.4886L7.28951 90.2362C7.05281 89.0089 7.1657 87.7411 7.62819 86.4328C8.09068 85.1245 8.90193 83.8983 10.0619 82.7541C11.0245 81.8047 12.0219 81.1374 13.0541 80.7523C14.0865 80.3426 15.0801 80.2269 16.0349 80.405C17.002 80.571 17.8751 81.0489 18.6541 81.8387C19.068 82.2583 19.4263 82.7326 19.7291 83.2617C20.032 83.7663 20.2482 84.4052 20.3778 85.1783C20.5196 85.9392 20.5682 86.9016 20.5234 88.0657L20.2295 96.0613L18.5784 95.5352L25.8901 88.3232L28.3002 90.7666L18.508 100.425ZM31.6107 87.5013L25.182 70.5427L27.2376 71.0716L20.259 77.9549L20.2042 75.2335L23.6732 78.7506L21.0077 81.3797L16.5162 76.8261L26.9007 66.5833L28.8178 68.527L34.8686 84.2879L31.6107 87.5013ZM48.3317 71.0084L41.9031 54.0499L43.9586 54.5788L36.9801 61.4621L36.9252 58.7407L40.3943 62.2577L37.7287 64.8869L33.2373 60.3332L43.6217 50.0905L45.5388 52.0341L51.5896 67.795L48.3317 71.0084ZM63.0172 56.9616C61.9312 58.0327 60.8228 58.8096 59.6918 59.2921C58.5487 59.7622 57.4567 59.9263 56.4159 59.7844C55.3628 59.63 54.4407 59.1518 53.6496 58.3497C52.8584 57.5476 52.411 56.6497 52.3076 55.6562C52.2042 54.6382 52.4198 53.5856 52.9543 52.4984C53.4767 51.3989 54.287 50.3075 55.3853 49.2242C56.4959 48.1287 57.6046 47.3273 58.7112 46.8202C59.8179 46.2885 60.8734 46.0874 61.8776 46.2168C62.8819 46.3218 63.7797 46.7753 64.5708 47.5774C65.362 48.3796 65.8275 49.3082 65.9674 50.3632C66.095 51.4059 65.9098 52.5016 65.4116 53.6503C64.9136 54.7745 64.1155 55.8783 63.0172 56.9616ZM60.8445 54.7588C61.5972 54.0164 62.0252 53.2655 62.1285 52.5063C62.2441 51.7349 62.0159 51.0592 61.4438 50.4792C60.8717 49.8992 60.2053 49.6679 59.4446 49.7852C58.684 49.878 57.9274 50.2957 57.1746 51.0382C56.4342 51.7685 56.0123 52.5133 55.909 53.2725C55.7936 54.0194 56.0219 54.6828 56.594 55.2628C57.1661 55.8428 57.8324 56.0864 58.593 55.9936C59.3535 55.9007 60.104 55.4892 60.8445 54.7588ZM56.8825 50.742C55.8829 51.728 54.8728 52.4564 53.8523 52.9274C52.8441 53.3863 51.8746 53.5635 50.9438 53.459C50.0131 53.3301 49.1887 52.9015 48.4706 52.1734C47.7159 51.4083 47.2806 50.5474 47.1646 49.5905C47.0364 48.6214 47.2027 47.6175 47.6633 46.5788C48.1118 45.5278 48.8234 44.5215 49.7983 43.5599C50.7979 42.574 51.8201 41.8701 52.8648 41.4483C53.9097 41.002 54.9158 40.8495 55.8831 40.991C56.8506 41.108 57.7117 41.549 58.4663 42.3141C59.1845 43.0422 59.5955 43.8785 59.6993 44.823C59.8033 45.7429 59.6128 46.7099 59.1278 47.7239C58.6428 48.7379 57.8944 49.7439 56.8825 50.742ZM55.1479 48.9835C55.7773 48.3628 56.1309 47.734 56.2089 47.0971C56.2991 46.4481 56.1008 45.8768 55.6139 45.3832C55.1027 44.8649 54.5158 44.6525 53.8533 44.746C53.2032 44.8274 52.5757 45.1662 51.971 45.7627C51.3787 46.3469 51.0374 46.9636 50.9472 47.6125C50.8569 48.2615 51.0674 48.8452 51.5786 49.3635C52.0655 49.8571 52.6278 50.0693 53.2657 50.0002C53.9035 49.931 54.5309 49.5921 55.1479 48.9835ZM75.6628 44.4885C74.4781 45.657 73.2043 46.4266 71.8412 46.7972C70.4905 47.1556 69.1121 47.091 67.7059 46.6033C66.2997 46.1156 64.9089 45.1746 63.5335 43.7801C62.0606 42.2869 61.0907 40.7481 60.6235 39.1638C60.1687 37.5673 60.1672 36.0107 60.6188 34.4939C61.0828 32.965 61.9627 31.5615 63.2585 30.2835C63.9495 29.6018 64.6828 29.0247 65.4582 28.552C66.2336 28.0793 66.9957 27.7658 67.7444 27.6116L68.8065 30.9099C68.2052 31.0161 67.6583 31.2268 67.1659 31.5421C66.6613 31.8451 66.1868 32.2156 65.7426 32.6538C64.6196 33.7615 64.0658 34.9772 64.0812 36.3011C64.0967 37.6249 64.7617 38.9532 66.0762 40.286C66.2953 40.5081 66.5388 40.7549 66.8066 41.0264C67.0867 41.2857 67.3915 41.5207 67.721 41.7313L66.1212 41.7755C65.8809 41.0629 65.7877 40.3637 65.8414 39.6777C65.883 38.9793 66.0776 38.3004 66.4253 37.6409C66.7732 36.9569 67.2557 36.3106 67.8727 35.702C68.7119 34.8743 69.6289 34.2984 70.624 33.9743C71.619 33.6502 72.6122 33.5958 73.6035 33.8109C74.6072 34.0139 75.5107 34.5227 76.314 35.3372C77.1782 36.2133 77.7108 37.1975 77.9116 38.2898C78.1127 39.3575 78.0195 40.4354 77.632 41.5236C77.2448 42.5873 76.5884 43.5756 75.6628 44.4885ZM73.287 42.413C73.7066 41.9992 74.0038 41.56 74.1785 41.0954C74.3535 40.6064 74.3875 40.1225 74.2804 39.6437C74.1734 39.165 73.9312 38.7343 73.5539 38.3518C72.9697 37.7594 72.3035 37.4913 71.5555 37.5475C70.8076 37.5791 70.1004 37.9236 69.4341 38.5808C68.9898 39.019 68.6863 39.4888 68.5235 39.9902C68.3485 40.4793 68.3084 40.9693 68.4031 41.4602C68.4979 41.9266 68.734 42.3511 69.1114 42.7337C69.4765 43.1039 69.8977 43.3458 70.375 43.4594C70.84 43.5606 71.3243 43.5333 71.8279 43.3774C72.3194 43.2092 72.8057 42.8878 73.287 42.413ZM84.5395 40.9187L81.3793 35.2711L83.4298 36.5354C82.8991 37.0588 82.3089 37.3366 81.6591 37.369C81.0216 37.3891 80.435 37.1277 79.8995 36.5847C79.3639 36.0417 79.1106 35.4394 79.1397 34.7777C79.1688 34.116 79.4363 33.5357 79.9422 33.0366C80.4605 32.5254 81.0506 32.2721 81.7124 32.2766C82.3621 32.2688 82.9486 32.5302 83.472 33.0609C83.6303 33.2213 83.7762 33.3939 83.9097 33.5787C84.0311 33.7511 84.1643 33.9849 84.3094 34.2801C84.4546 34.5507 84.6175 34.9257 84.798 35.4049L86.3721 39.1112L84.5395 40.9187ZM96.1246 24.306C95.2237 25.1945 94.2134 25.9598 93.0937 26.6017C91.9617 27.2312 90.8681 27.6282 89.8129 27.7926L88.7151 24.347C89.5617 24.218 90.4155 23.9358 91.2764 23.5005C92.1374 23.0651 92.9011 22.5188 93.5675 21.8615C94.3202 21.119 94.7665 20.3867 94.9063 19.6645C95.0461 18.9423 94.8604 18.3221 94.3491 17.8038C93.8623 17.3102 93.2876 17.1101 92.625 17.2036C91.9625 17.2971 91.2055 17.7638 90.354 18.6037L88.9843 19.9548L87.0307 17.9741L86.6052 10.323L87.9974 11.0679L81.2039 17.7686L78.8304 15.3622L87.9006 6.4158L89.8177 8.35942L90.2617 15.9923L87.8857 16.6195L88.7557 15.7614C90.3476 14.1912 91.9038 13.3623 93.4242 13.2747C94.9447 13.1871 96.2587 13.7047 97.3664 14.8277C98.0845 15.5558 98.5688 16.4294 98.8192 17.4484C99.0574 18.4551 98.9764 19.5454 98.5761 20.7193C98.1758 21.8932 97.3586 23.0888 96.1246 24.306Z" fill="black"/>
<rect width="70" height="4" transform="translate(0 110.348)" fill="#2F80ED"/>
<g opacity="0.1">
<rect width="70" height="27" transform="translate(0 114.348)" fill="#2F80ED"/>
</g>
</svg>
