<svg width="95" height="137" viewBox="0 0 95 137" fill="none" xmlns="http://www.w3.org/2000/svg">
<path d="M23.4699 86.4624C22.569 87.351 21.5587 88.1162 20.4389 88.7581C19.307 89.3877 18.2134 89.7847 17.1582 89.949L16.0604 86.5034C16.907 86.3744 17.7608 86.0922 18.6217 85.6569C19.4827 85.2216 20.2464 84.6753 20.9128 84.018C21.6655 83.2755 22.1118 82.5432 22.2516 81.821C22.3914 81.0988 22.2056 80.4785 21.6944 79.9602C21.2075 79.4666 20.6328 79.2666 19.9703 79.3601C19.3078 79.4536 18.5508 79.9202 17.6993 80.7601L16.3296 82.1112L14.3759 80.1306L13.9505 72.4794L15.3426 73.2244L8.54924 79.9251L6.17569 77.5187L15.2459 68.5722L17.163 70.5159L17.607 78.1488L15.231 78.7759L16.101 77.9178C17.6929 76.3476 19.2491 75.5187 20.7695 75.4311C22.29 75.3435 23.604 75.8612 24.7117 76.9842C25.4298 77.7122 25.9141 78.5858 26.1645 79.6048C26.4027 80.6115 26.3217 81.7018 25.9214 82.8757C25.5211 84.0496 24.7039 85.2452 23.4699 86.4624ZM32.0026 77.6079L20.3174 65.7611L22.8912 65.7788L19.004 69.613L16.6304 67.2066L22.2207 61.6927L35.0013 74.6501L32.0026 77.6079ZM42.3834 67.3687L40.4663 65.4251L40.8084 55.7752C40.8503 55.0279 40.8238 54.421 40.729 53.9545C40.6341 53.4881 40.5019 53.1073 40.3324 52.8119C40.1751 52.5044 39.9991 52.252 39.8044 52.0545C39.2932 51.5362 38.7247 51.3178 38.0991 51.3993C37.4736 51.4563 36.8215 51.8195 36.1427 52.489C35.5998 53.0246 35.1973 53.6285 34.9353 54.3008C34.6856 54.961 34.6194 55.6714 34.7368 56.4322L31.1649 57.1798C30.9282 55.9525 31.0411 54.6847 31.5036 53.3764C31.9661 52.0681 32.7773 50.8418 33.9373 49.6977C34.8999 48.7483 35.8972 48.081 36.9295 47.6959C37.9619 47.2862 38.9554 47.1705 39.9103 47.3486C40.8774 47.5146 41.7505 47.9925 42.5295 48.7823C42.9433 49.2019 43.3017 49.6762 43.6044 50.2053C43.9074 50.7099 44.1236 51.3488 44.2531 52.1219C44.395 52.8827 44.4435 53.8452 44.3988 55.0093L44.1048 63.0049L42.4538 62.4787L49.7655 55.2668L52.1755 57.7102L42.3834 67.3687ZM57.8339 52.5673C56.933 53.4559 55.9227 54.2211 54.8029 54.8631C53.671 55.4926 52.5774 55.8896 51.5222 56.0539L50.4244 52.6084C51.271 52.4794 52.1248 52.1972 52.9857 51.7619C53.8467 51.3265 54.6104 50.7802 55.2767 50.1229C56.0295 49.3804 56.4758 48.6481 56.6156 47.9259C56.7554 47.2037 56.5696 46.5835 56.0584 46.0652C55.5715 45.5715 54.9968 45.3715 54.3343 45.465C53.6718 45.5585 52.9148 46.0252 52.0633 46.8651L50.6935 48.2161L48.7399 46.2355L48.3145 38.5843L49.7066 39.3293L42.9132 46.03L40.5397 43.6236L49.6099 34.6772L51.527 36.6208L51.971 44.2537L49.595 44.8809L50.465 44.0227C52.0569 42.4526 53.6131 41.6237 55.1335 41.536C56.6539 41.4484 57.968 41.9661 59.0756 43.0891C59.7938 43.8172 60.2781 44.6907 60.5285 45.7098C60.7667 46.7165 60.6857 47.8068 60.2854 48.9807C59.8851 50.1546 59.0679 51.3501 57.8339 52.5673ZM70.1397 40.4294C69.0784 41.4762 67.8726 42.1543 66.5222 42.4637C65.1597 42.7608 63.7448 42.6469 62.2776 42.122C60.8104 41.5972 59.3769 40.6252 57.9771 39.206C56.5773 37.7869 55.6251 36.3401 55.1204 34.8659C54.6158 33.3916 54.5274 31.9814 54.8553 30.6354C55.1711 29.2771 55.8596 28.0745 56.9209 27.0277C57.9945 25.9688 59.2064 25.2969 60.5566 25.012C61.907 24.7026 63.3158 24.8103 64.783 25.3352C66.2502 25.86 67.6837 26.832 69.0835 28.2512C70.4833 29.6703 71.4355 31.117 71.9401 32.5913C72.4448 34.0656 72.5392 35.4819 72.2235 36.8403C71.9079 38.1741 71.2133 39.3705 70.1397 40.4294ZM67.6383 37.8935C68.1443 37.3944 68.4424 36.8204 68.5327 36.1714C68.6353 35.5103 68.4872 34.7677 68.0883 33.9438C67.7019 33.1076 67.0278 32.2021 66.0662 31.2272C65.1047 30.2524 64.2085 29.5659 63.3778 29.168C62.5594 28.7579 61.8189 28.5996 61.1564 28.6931C60.5062 28.7745 59.9282 29.0646 59.4222 29.5637C58.9286 30.0506 58.6305 30.6246 58.5279 31.2858C58.4376 31.9348 58.5858 32.6773 58.9722 33.5134C59.371 34.3374 60.0512 35.2368 61.0128 36.2117C61.9744 37.1866 62.8644 37.8791 63.6828 38.2892C64.5135 38.6871 65.254 38.8454 65.9042 38.7641C66.5667 38.6706 67.1447 38.3804 67.6383 37.8935ZM79.6186 36.2657L76.4584 30.6181L78.5088 31.8824C77.9782 32.4058 77.3879 32.6836 76.7381 32.7159C76.1006 32.7361 75.5141 32.4746 74.9785 31.9317C74.4429 31.3887 74.1897 30.7864 74.2188 30.1247C74.2478 29.463 74.5153 28.8827 75.0213 28.3836C75.5396 27.8724 76.1296 27.6191 76.7915 27.6236C77.4411 27.6158 78.0277 27.8772 78.5511 28.4079C78.7093 28.5683 78.8552 28.7409 78.9888 28.9257C79.1101 29.0981 79.2434 29.3319 79.3884 29.627C79.5336 29.8977 79.6965 30.2726 79.8771 30.7519L81.4511 34.4581L79.6186 36.2657ZM86.165 24.6228C85.2641 25.5114 84.2538 26.2766 83.134 26.9185C82.0144 27.536 80.9209 27.9329 79.8533 28.1094L78.774 24.6456C79.6206 24.5166 80.4682 24.2405 81.3168 23.8173C82.1778 23.382 82.9415 22.8357 83.6079 22.1784C84.3606 21.4359 84.8069 20.7036 84.9467 19.9814C85.0865 19.2592 84.8947 18.6328 84.3713 18.1021C84.0426 17.769 83.6641 17.558 83.2357 17.4692C82.8074 17.3805 82.3041 17.4874 81.7259 17.7898C81.1601 18.0801 80.4823 18.6147 79.6926 19.3937L76.3791 22.6619L69.8519 14.7114L77.7559 6.91526L80.1294 9.32164L73.299 16.0589L73.5028 13.1554L78.1706 18.8133L75.2646 18.9772L78.0042 16.275C79.2876 15.0091 80.4945 14.1717 81.6249 13.7628C82.7555 13.3293 83.798 13.2384 84.7523 13.4901C85.7066 13.7418 86.5611 14.2502 87.3157 15.0153C88.0704 15.7804 88.579 16.6786 88.8416 17.71C89.092 18.729 89.0169 19.8378 88.6165 21.0362C88.2162 22.2101 87.399 23.4056 86.165 24.6228Z" fill="black"/>
<rect width="70" height="4" transform="translate(0.5 100.348)" fill="#2F80ED"/>
<g opacity="0.1">
<rect width="70" height="32" transform="translate(0.5 104.348)" fill="#2F80ED"/>
</g>
</svg>
