<svg width="93" height="141" viewBox="0 0 93 141" fill="none" xmlns="http://www.w3.org/2000/svg">
<path d="M22.7439 86.6853C21.8431 87.5738 20.8328 88.3391 19.713 88.981C18.581 89.6106 17.4875 90.0075 16.4322 90.1719L15.3344 86.7263C16.181 86.5973 17.0348 86.3151 17.8958 85.8798C18.7567 85.4445 19.5204 84.8982 20.1868 84.2409C20.9396 83.4984 21.3858 82.766 21.5256 82.0438C21.6654 81.3216 21.4797 80.7014 20.9685 80.1831C20.4816 79.6895 19.9069 79.4894 19.2444 79.5829C18.5819 79.6764 17.8249 80.1431 16.9734 80.983L15.6036 82.3341L13.65 80.3534L13.2245 72.7023L14.6167 73.4472L7.82328 80.148L5.44973 77.7416L14.5199 68.7951L16.437 70.7387L16.881 78.3717L14.505 78.9988L15.375 78.1407C16.9669 76.5705 18.5231 75.7416 20.0435 75.654C21.564 75.5664 22.878 76.0841 23.9857 77.207C24.7038 77.9351 25.1881 78.8087 25.4385 79.8277C25.6767 80.8344 25.5957 81.9247 25.1954 83.0986C24.7951 84.2725 23.978 85.4681 22.7439 86.6853ZM33.7213 75.8577C32.8205 76.7462 31.8102 77.5115 30.6904 78.1534C29.5708 78.7708 28.4772 79.1678 27.4096 79.3443L26.3303 75.8805C27.1769 75.7514 28.0245 75.4754 28.8732 75.0522C29.7341 74.6169 30.4978 74.0706 31.1642 73.4133C31.9169 72.6708 32.3632 71.9384 32.503 71.2162C32.6428 70.4941 32.451 69.8676 31.9276 69.337C31.5989 69.0038 31.2204 68.7928 30.7921 68.7041C30.3637 68.6154 29.8604 68.7222 29.2823 69.0247C28.7165 69.3149 28.0387 69.8496 27.2489 70.6286L23.9355 73.8968L17.4082 65.9463L25.3122 58.1501L27.6858 60.5565L20.8553 67.2937L21.0591 64.3903L25.7269 70.0482L22.8209 70.2121L25.5605 67.5099C26.8439 66.244 28.0508 65.4066 29.1812 64.9976C30.3118 64.5641 31.3543 64.4732 32.3086 64.7249C33.2629 64.9766 34.1174 65.485 34.872 66.2501C35.6267 67.0152 36.1353 67.9135 36.3979 68.9449C36.6483 69.9639 36.5733 71.0726 36.1728 72.271C35.7725 73.4449 34.9554 74.6405 33.7213 75.8577ZM36.9016 46.2806C38.0986 45.1 39.3725 44.3304 40.7232 43.972C42.0739 43.6135 43.4524 43.6782 44.8586 44.1658C46.2526 44.6412 47.6434 45.5823 49.031 46.9891C50.5038 48.4823 51.4676 50.0271 51.9224 51.6236C52.3895 53.208 52.3973 54.7585 51.9456 56.2752C51.4939 57.792 50.6141 59.1955 49.306 60.4857C48.6273 61.1552 47.9002 61.7262 47.1248 62.1989C46.3493 62.6716 45.5872 62.9851 44.8385 63.1392L43.7765 59.841C44.3778 59.7348 44.9307 59.5303 45.4353 59.2273C45.9278 58.912 46.3961 58.5353 46.8404 58.0971C47.951 57.0016 48.4986 55.7919 48.4832 54.4681C48.4801 53.1321 47.8213 51.7977 46.5067 50.4649C46.2876 50.2428 46.038 50.0021 45.7579 49.7427C45.4778 49.4834 45.1791 49.2424 44.862 49.0196L46.4433 48.9937C46.7082 49.6819 46.8137 50.3812 46.7598 51.0917C46.6937 51.7899 46.4929 52.4749 46.1574 53.1468C45.8096 53.8062 45.3211 54.4464 44.6917 55.0671C43.8649 55.8827 42.9478 56.4586 41.9405 56.7948C40.9454 57.1189 39.9461 57.1795 38.9424 56.9765C37.9511 56.7613 37.0538 56.2465 36.2504 55.432C35.374 54.5435 34.8353 53.5654 34.6343 52.4976C34.4456 51.4178 34.5511 50.3399 34.9507 49.264C35.3505 48.1637 36.0008 47.1692 36.9016 46.2806ZM39.2959 48.3378C38.864 48.7639 38.5668 49.2153 38.4042 49.6922C38.2294 50.1568 38.1955 50.6284 38.3025 51.1072C38.3974 51.5736 38.6395 52.0043 39.029 52.3991C39.6133 52.9915 40.2794 53.2718 41.0273 53.2402C41.7753 53.1841 42.4825 52.8273 43.1489 52.1701C43.5808 51.744 43.8843 51.2865 44.0592 50.7974C44.2343 50.2838 44.2684 49.7877 44.1614 49.3089C44.0543 48.8302 43.8182 48.4057 43.4531 48.0355C43.0879 47.6653 42.6728 47.4295 42.2077 47.3283C41.7429 47.2025 41.2647 47.2237 40.7733 47.392C40.2697 47.5478 39.7772 47.8631 39.2959 48.3378ZM48.6877 34.6554C49.8847 33.4747 51.1586 32.7052 52.5093 32.3467C53.86 31.9883 55.2384 32.0529 56.6446 32.5406C58.0386 33.0159 59.4295 33.957 60.8171 35.3638C62.2899 36.857 63.2537 38.4019 63.7085 39.9984C64.1756 41.5827 64.1833 43.1333 63.7317 44.65C63.28 46.1667 62.4001 47.5702 61.092 48.8605C60.4133 49.5299 59.6862 50.101 58.9108 50.5737C58.1354 51.0464 57.3733 51.3598 56.6246 51.514L55.5625 48.2158C56.1638 48.1096 56.7168 47.905 57.2214 47.6021C57.7139 47.2868 58.1822 46.91 58.6265 46.4718C59.7371 45.3763 60.2847 44.1667 60.2693 42.8428C60.2662 41.5068 59.6074 40.1724 58.2928 38.8397C58.0737 38.6175 57.8241 38.3768 57.544 38.1175C57.2638 37.8582 56.9652 37.6171 56.6481 37.3943L58.2294 37.3684C58.4943 38.0566 58.5998 38.756 58.5459 39.4665C58.4798 40.1647 58.279 40.8497 57.9434 41.5215C57.5957 42.181 57.1072 42.8211 56.4778 43.4419C55.651 44.2574 54.7339 44.8333 53.7265 45.1696C52.7315 45.4937 51.7322 45.5542 50.7285 45.3512C49.7372 45.1361 48.8398 44.6212 48.0365 43.8068C47.1601 42.9183 46.6214 41.9401 46.4204 40.8724C46.2317 39.7925 46.3371 38.7146 46.7367 37.6388C47.1365 36.5384 47.7868 35.544 48.6877 34.6554ZM51.082 36.7126C50.6501 37.1386 50.3528 37.5901 50.1902 38.067C50.0154 38.5315 49.9816 39.0032 50.0886 39.4819C50.1834 39.9484 50.4256 40.379 50.8151 40.7739C51.3994 41.3662 52.0654 41.6466 52.8133 41.615C53.5614 41.5588 54.2686 41.2021 54.935 40.5448C55.3669 40.1188 55.6703 39.6612 55.8453 39.1722C56.0204 38.6586 56.0545 38.1624 55.9474 37.6837C55.8404 37.2049 55.6043 36.7804 55.2392 36.4102C54.874 36.04 54.4589 35.8043 53.9938 35.703C53.5289 35.5773 53.0508 35.5985 52.5593 35.7667C52.0557 35.9226 51.5633 36.2379 51.082 36.7126ZM60.4738 23.0302C61.6708 21.8495 62.9446 21.0799 64.2954 20.7215C65.6461 20.3631 67.0245 20.4277 68.4307 20.9154C69.8247 21.3907 71.2155 22.3318 72.6031 23.7386C74.076 25.2318 75.0398 26.7766 75.4945 28.3731C75.9617 29.9575 75.9694 31.508 75.5177 33.0248C75.0661 34.5415 74.1862 35.945 72.8781 37.2352C72.1994 37.9047 71.4723 38.4758 70.6969 38.9484C69.9215 39.4211 69.1594 39.7346 68.4107 39.8888L67.3486 36.5905C67.9499 36.4843 68.5029 36.2798 69.0075 35.9768C69.4999 35.6615 69.9683 35.2848 70.4125 34.8466C71.5232 33.7511 72.0708 32.5414 72.0554 31.2176C72.0523 29.8816 71.3934 28.5472 70.0789 27.2144C69.8598 26.9923 69.6102 26.7516 69.33 26.4923C69.0499 26.2329 68.7513 25.9919 68.4341 25.7691L70.0154 25.7432C70.2804 26.4314 70.3859 27.1307 70.332 27.8413C70.2659 28.5395 70.0651 29.2245 69.7295 29.8963C69.3818 30.5558 68.8932 31.1959 68.2639 31.8167C67.4371 32.6322 66.52 33.2081 65.5126 33.5443C64.5176 33.8684 63.5182 33.929 62.5146 33.726C61.5233 33.5108 60.6259 32.996 59.8226 32.1815C58.9462 31.293 58.4075 30.3149 58.2064 29.2472C58.0178 28.1673 58.1232 27.0894 58.5228 26.0135C58.9226 24.9132 59.5729 23.9187 60.4738 23.0302ZM62.8681 25.0874C62.4362 25.5134 62.1389 25.9648 61.9763 26.4417C61.8015 26.9063 61.7676 27.378 61.8746 27.8567C61.9695 28.3231 62.2117 28.7538 62.6012 29.1487C63.1854 29.741 63.8515 30.0214 64.5994 29.9897C65.3474 29.9336 66.0547 29.5769 66.721 28.9196C67.153 28.4936 67.4564 28.036 67.6313 27.5469C67.8065 27.0334 67.8405 26.5372 67.7335 26.0584C67.6265 25.5797 67.3904 25.1552 67.0252 24.785C66.6601 24.4148 66.245 24.179 65.7799 24.0778C65.315 23.952 64.8368 23.9733 64.3454 24.1415C63.8418 24.2974 63.3494 24.6127 62.8681 25.0874ZM83.3937 32.0489L80.2335 26.4013L82.284 27.6656C81.7533 28.189 81.1631 28.4668 80.5133 28.4991C79.8758 28.5192 79.2892 28.2578 78.7537 27.7148C78.2181 27.1719 77.9649 26.5695 77.9939 25.9079C78.023 25.2462 78.2905 24.6658 78.7964 24.1668C79.3147 23.6556 79.9048 23.4022 80.5666 23.4068C81.2163 23.399 81.8028 23.6604 82.3262 24.191C82.4845 24.3515 82.6304 24.5241 82.7639 24.7088C82.8853 24.8813 83.0185 25.1151 83.1636 25.4102C83.3088 25.6809 83.4717 26.0558 83.6522 26.5351L85.2263 30.2413L83.3937 32.0489ZM87.0254 22.8427L75.3403 10.9959L77.9141 11.0136L74.0269 14.8478L71.6533 12.4414L77.2435 6.92746L90.0242 19.8849L87.0254 22.8427Z" fill="black"/>
<rect width="70" height="4" transform="translate(0 100.348)" fill="#2F80ED"/>
<g opacity="0.1">
<rect width="70" height="36" transform="translate(0 104.348)" fill="#2F80ED"/>
</g>
</svg>
